<svg xmlns="http://www.w3.org/2000/svg" width="20" height="20" viewBox="0 0 20 20" fill="none">
  <path d="M15.6423 2.35901C14.8827 1.59243 13.9954 0.998221 13.0035 0.591643C10.0185 -0.627303 6.61852 0.0708542 4.3428 2.36217C2.83323 3.88638 2 5.8269 2 7.83348C2 9.83689 2.83271 11.7795 4.3428 13.3022L5.17342 14.1319C6.8404 15.7924 8.27793 17.2261 9.51132 19.219L9.99111 19.9995L10.474 19.219C11.7074 17.2261 13.1449 15.7924 14.8091 14.1337L15.642 13.2995C18.7859 10.1301 18.7859 5.52874 15.6423 2.35901ZM12.4738 10.6945C11.1034 12.0782 8.88196 12.0782 7.51126 10.6945C6.14108 9.31558 6.14108 7.07611 7.51126 5.69453C8.88196 4.31559 11.1034 4.31559 12.4738 5.69453C13.8411 7.07611 13.8411 9.31505 12.4738 10.6945Z" fill="#F48A71"/>
</svg>