<svg xmlns="http://www.w3.org/2000/svg" width="248" height="45" viewBox="0 0 248 45" fill="none">
  <path d="M11.5508 31.9978V20.0107H0V15.0805H11.5508V2.9967H16.8368V15.0805L28.1429 15.0805V20.0107L16.8368 20.0107V31.9978H11.5508Z" fill="#F48A71"/>
  <path d="M32.0117 34.4145V0.579956H37.8361V14.6455H54.3792V0.579956H60.2036V34.4145H54.3792V19.769H37.8361V34.4145H32.0117Z" fill="#EA3C12"/>
  <path d="M75.8507 34.4145C73.9583 34.4145 72.2614 33.9795 70.7605 33.1095C69.2596 32.2073 68.0686 31.0149 67.1876 29.5327C66.3391 28.0181 65.915 26.3588 65.915 24.5542C65.915 23.1363 66.2413 21.7991 66.8939 20.5424C67.5791 19.2534 68.5255 18.1739 69.7327 17.3039C68.5255 16.4339 67.5955 15.3866 66.9429 14.1621C66.2902 12.9054 65.964 11.6004 65.964 10.247C65.964 8.44246 66.3881 6.81519 67.2365 5.36514C68.1175 3.91508 69.2922 2.75504 70.7605 1.885C72.2288 1.01497 73.8604 0.579956 75.6549 0.579956H89.4572V5.70348H76.2912C75.4753 5.70348 74.725 5.91294 74.0398 6.33184C73.3546 6.71852 72.7998 7.25021 72.3757 7.9269C71.9841 8.60359 71.7883 9.37695 71.7883 10.247C71.7883 11.0203 72.0005 11.7454 72.4246 12.4221C72.8487 13.0988 73.4035 13.6466 74.0887 14.0655C74.7739 14.4521 75.5406 14.6455 76.3891 14.6455H87.7441V19.769H76.6828C75.7039 19.769 74.8393 19.9946 74.0887 20.4457C73.3382 20.8968 72.7508 21.4929 72.3267 22.2341C71.9352 22.943 71.7394 23.7325 71.7394 24.6025C71.7394 25.4404 71.9352 26.2297 72.3267 26.9709C72.7508 27.6798 73.322 28.2598 74.0398 28.711C74.7903 29.1298 75.6385 29.3394 76.5849 29.3394H89.4572V34.4145H75.8507Z" fill="#EA3C12"/>
  <path d="M113.294 44.9516C111.564 44.9516 110.047 44.6294 108.742 43.9849C107.437 43.3727 106.442 42.4544 105.756 41.2298C105.071 40.0376 104.729 38.6035 104.729 36.928C104.729 35.4134 105.022 33.7379 105.61 31.9011C106.229 30.0644 107.339 28.1793 108.938 26.2459C110.536 24.3125 112.804 22.4597 115.741 20.6874V5.65515H108.644V0.579956H121.565V36.0579C121.565 37.7659 121.239 39.2964 120.586 40.6498C119.967 42.0032 119.037 43.0503 117.797 43.7916C116.589 44.5649 115.088 44.9516 113.294 44.9516ZM112.902 39.7797C113.457 39.7797 113.946 39.6347 114.371 39.3447C114.795 39.0547 115.121 38.6359 115.349 38.088C115.578 37.5725 115.692 36.9442 115.692 36.2029V26.5843C113.897 28.0022 112.609 29.3556 111.825 30.6444C111.042 31.9333 110.569 33.0774 110.406 34.0762C110.243 35.0429 110.161 35.7841 110.161 36.2996C110.161 37.4275 110.439 38.2814 110.993 38.8614C111.548 39.4735 112.184 39.7797 112.902 39.7797Z" fill="#EA3C12"/>
  <path d="M142.41 34.9946C139.702 34.9946 137.303 34.4467 135.215 33.3512C133.127 32.2233 131.479 30.6282 130.272 28.566C129.097 26.5038 128.51 24.0386 128.51 21.1707V0.579956H134.334V21.6541C134.334 23.1363 134.66 24.5058 135.313 25.7626C135.998 27.0193 136.945 28.0343 138.152 28.8077C139.359 29.5489 140.795 29.9194 142.459 29.9194C144.123 29.9194 145.542 29.5489 146.717 28.8077C147.924 28.0343 148.854 27.0193 149.507 25.7626C150.159 24.5058 150.486 23.1363 150.486 21.6541V0.579956H156.359V21.1707C156.359 24.0386 155.756 26.5038 154.548 28.566C153.341 30.6282 151.693 32.2233 149.605 33.3512C147.517 34.4467 145.118 34.9946 142.41 34.9946Z" fill="#EA3C12"/>
  <path d="M172.463 34.4145C170.538 34.4145 168.841 33.9957 167.373 33.1578C165.938 32.2878 164.812 31.1278 163.996 29.6777C163.213 28.2276 162.821 26.6164 162.821 24.8442V0.579956H168.695V25.5692C168.695 26.6004 169.037 27.4864 169.722 28.2276C170.44 28.9689 171.354 29.3394 172.463 29.3394H181.567V34.4145H172.463Z" fill="#EA3C12"/>
  <path d="M211.213 45C209.451 45 207.901 44.6778 206.563 44.0333C205.258 43.3887 204.246 42.4382 203.528 41.1815C202.843 39.957 202.501 38.491 202.501 36.783C202.501 36.3642 202.517 35.9292 202.55 35.478C202.582 35.0592 202.631 34.6241 202.696 34.1729C200.021 34.2696 197.574 33.8991 195.355 33.0612C193.136 32.2233 191.211 31.0311 189.579 29.4844C187.981 27.9377 186.741 26.1172 185.86 24.0226C184.979 21.8958 184.538 19.5918 184.538 17.1106C184.538 14.7583 184.946 12.551 185.762 10.4887C186.577 8.42643 187.752 6.60579 189.286 5.02685C190.819 3.44791 192.663 2.22342 194.816 1.35338C196.97 0.451129 199.368 0 202.011 0C204.687 0 207.101 0.435016 209.255 1.30505C211.408 2.14286 213.252 3.33512 214.786 4.88185C216.319 6.42857 217.494 8.21697 218.31 10.247C219.125 12.2449 219.533 14.4039 219.533 16.724V36.058C219.533 37.7659 219.207 39.2965 218.554 40.6498C217.934 42.0032 217.004 43.0666 215.764 43.84C214.524 44.6133 213.007 45 211.213 45ZM210.821 39.8281C211.702 39.8281 212.387 39.506 212.877 38.8614C213.399 38.2169 213.66 37.3309 213.66 36.203V26.1493C212.289 27.1805 211.213 28.1956 210.43 29.1944C209.646 30.1933 209.075 31.144 208.716 32.0462C208.39 32.9484 208.178 33.7541 208.08 34.4629C208.015 35.1718 207.982 35.7358 207.982 36.1547C207.982 36.928 208.113 37.5885 208.374 38.1364C208.635 38.6843 208.978 39.1031 209.402 39.3931C209.859 39.6831 210.332 39.8281 210.821 39.8281ZM202.011 29.1461C202.533 29.1461 203.006 29.1299 203.431 29.0977C203.855 29.0332 204.312 28.9527 204.801 28.8561C205.323 27.8894 205.976 26.9065 206.759 25.9076C207.542 24.9088 208.504 23.942 209.646 23.0075C210.789 22.0408 212.126 21.1224 213.66 20.2524V16.724C213.66 15.0806 213.366 13.55 212.779 12.1321C212.224 10.7143 211.408 9.4898 210.332 8.45865C209.287 7.39527 208.064 6.57358 206.661 5.99356C205.258 5.38132 203.708 5.07519 202.011 5.07519C200.347 5.07519 198.797 5.38132 197.361 5.99356C195.958 6.60579 194.735 7.45973 193.691 8.55532C192.646 9.61869 191.831 10.8915 191.243 12.3738C190.656 13.8238 190.362 15.4028 190.362 17.1106C190.362 18.8185 190.656 20.4135 191.243 21.8958C191.831 23.3459 192.646 24.6188 193.691 25.7143C194.735 26.7777 195.958 27.6155 197.361 28.2277C198.797 28.8399 200.347 29.1461 202.011 29.1461Z" fill="#EA3C12"/>
  <path d="M234.393 34.4145C232.5 34.4145 230.804 33.9795 229.302 33.1095C227.802 32.2073 226.611 31.0149 225.73 29.5327C224.881 28.0181 224.457 26.3588 224.457 24.5542C224.457 23.1363 224.783 21.7991 225.436 20.5424C226.121 19.2534 227.067 18.1739 228.275 17.3039C227.067 16.4339 226.138 15.3866 225.485 14.1621C224.832 12.9054 224.506 11.6004 224.506 10.247C224.506 8.44246 224.93 6.81519 225.779 5.36514C226.66 3.91508 227.834 2.75504 229.302 1.885C230.771 1.01497 232.402 0.579956 234.197 0.579956H248V5.70348H234.833C234.018 5.70348 233.267 5.91294 232.582 6.33184C231.897 6.71852 231.342 7.25021 230.918 7.9269C230.526 8.60359 230.33 9.37695 230.33 10.247C230.33 11.0203 230.542 11.7454 230.967 12.4221C231.391 13.0988 231.945 13.6466 232.631 14.0655C233.316 14.4521 234.083 14.6455 234.931 14.6455H246.287V19.769H235.225C234.246 19.769 233.381 19.9946 232.631 20.4457C231.88 20.8968 231.293 21.4929 230.869 22.2341C230.477 22.943 230.282 23.7325 230.282 24.6025C230.282 25.4404 230.477 26.2297 230.869 26.9709C231.293 27.6798 231.864 28.2598 232.582 28.711C233.332 29.1298 234.181 29.3394 235.127 29.3394H248V34.4145H234.393Z" fill="#EA3C12"/>
</svg>