<svg width="20" height="20" viewBox="0 0 20 20" fill="none" xmlns="http://www.w3.org/2000/svg">
<path d="M15.6424 2.3595C14.8828 1.59292 13.9955 0.99871 13.0036 0.592131C10.0186 -0.626815 6.61864 0.0713425 4.34292 2.36266C2.83335 3.88686 2.00012 5.82739 2.00012 7.83396C2.00012 9.83738 2.83283 11.78 4.34292 13.3026L5.17354 14.1324C6.84052 15.7929 8.27805 17.2266 9.51144 19.2195L9.99123 20L10.4741 19.2195C11.7075 17.2266 13.1451 15.7929 14.8092 14.1342L15.6421 13.3C18.7861 10.1305 18.7861 5.52923 15.6424 2.3595ZM12.4739 10.695C11.1035 12.0787 8.88209 12.0787 7.51138 10.695C6.1412 9.31607 6.1412 7.0766 7.51138 5.69502C8.88209 4.31607 11.1035 4.31607 12.4739 5.69502C13.8413 7.0766 13.8413 9.31554 12.4739 10.695Z" fill="#F48A71"/>
</svg>
